<?xml version="1.0" encoding="utf-8"?>
<!-- Generator: Adobe Illustrator 27.2.0, SVG Export Plug-In . SVG Version: 6.00 Build 0)  -->
<svg version="1.1" id="katman_1" xmlns="http://www.w3.org/2000/svg" xmlns:xlink="http://www.w3.org/1999/xlink" x="0px" y="0px"
	 viewBox="0 0 1190.6 841.9" style="enable-background:new 0 0 1190.6 841.9;" xml:space="preserve">
<style type="text/css">
	.st0{fill:#FFFFFF;}
</style>
<g>
	<g>
		<path class="st0" d="M394.4,388h12l-6.3-15.9L394.4,388z M381.8,403.4l17.8-41.9h4.8l17.8,41.9h-9.1l-3.9-10.6h-15.9l-4.3,10.6
			H381.8L381.8,403.4z M423.7,401.5l-0.5-7.7c3.8,3.4,8.2,5.3,12.5,5.3c2.4,0,4.3-0.5,5.8-1.4c2.1-1.6,2.5-4.7,0.8-6.8
			c-0.1-0.1-0.2-0.3-0.4-0.4c-1.4-1.9-4.3-2.9-10.6-5.8c-5.8-2.9-8.7-6.7-8.7-12c0-3.4,1.4-6.3,3.9-8.7c5.3-4.8,14.4-2.9,15.4-2.9
			c1.9,0.5,3.4,1,4.8,1.4l0.5,7.2c-1.6-1.2-3.4-2.2-5.3-2.9c-5.8-1.9-12-0.5-12,4.3c0,2.4,1.4,3.9,4.8,5.8
			c7.2,3.9,11.1,5.3,13.5,8.7c3.4,3.8,3.4,12-1.9,15.9c-2.9,1.9-6.3,3.4-11.1,3.4C430,404.3,425.6,402.4,423.7,401.5z M463.6,403.4
			v-37.1c-3.4,0-7.2,0.5-12.5,1l0.5-6.3h32.2l0.5,6.3c-6.7-1-10.6-1-12.5-1v36.6h-8.2V403.4L463.6,403.4z M505.5,399
			c6.7,0,12.5-5.3,12.5-16.8c0-1,0-10.1-5.8-14.9c-1.9-1.4-3.9-1.9-6.7-1.9c-8.7,0-12.5,8.2-12.5,16.8
			C493.5,393.8,499.3,399,505.5,399L505.5,399z M505.5,404.3c-12.5,0-21.2-9.1-21.2-21.7c0-13,8.7-21.7,21.2-21.7
			s21.2,8.7,21.2,21.7C526.7,395.2,518,404.3,505.5,404.3z M533.4,403.4v-41.9h4.3l25,28.4v-28.4h5.8v41.9h-4.3l-25-28.4v28.4H533.4
			z M591.2,403.4l4.8-41.9h4.3l14.9,29.4l14.4-29.4h4.3l4.8,41.9H630l-2.4-26l-11.5,24.1h-3.9l-12-24.1l-2.4,25.5h-6.7L591.2,403.4
			L591.2,403.4z M654.2,388h12l-6.3-15.9L654.2,388L654.2,388z M641.7,403.4l17.8-41.9h4.8l17.8,41.9H673l-3.8-10.6h-15.9l-4.3,10.6
			H641.7L641.7,403.4z M693.2,380.3c1,0,2.4,0.5,3.4,0.5c6.7,0,8.7-3.9,8.7-7.2c0-5.3-3.8-7.2-8.7-7.2h-2.9v14L693.2,380.3
			L693.2,380.3z M685.5,403.9V362c2.4-0.5,5.3-0.5,9.6-0.5c3.9,0,7.2,0.5,9.6,1.4c3.8,1.4,8.7,4.3,8.7,10.6c0,2.4-1,4.8-2.4,7.2
			c-1.4,1.9-3.8,3.4-6.7,4.3l14.9,18.8h-9.6l-13-17.8h-2.9v17.8h-8.2V403.9z M728.8,403.4v-37.1c-3.4,0-7.2,0.5-12.5,1l0.5-6.3H749
			l0.5,6.3c-6.7-1-10.6-1-12.5-1v36.6h-8.2V403.4L728.8,403.4z M754.8,361.5h8.2v41.9h-8.2V361.5z M771.1,403.4v-41.9h4.3l25,28.4
			v-28.4h5.8v41.9h-4.3l-25-28.4v28.4H771.1z"/>
		<path class="st0" d="M1105.1,312.4c-2.9-4.8-8.2-7.7-14.4-7.7H678.3c-6.7,0-17.3,0-28.4,11.1c-2.9,3-5.4,6.4-7.2,10.1
			c-3.4,6.3-5.8,10.6-17.3,10.6h-60.1c-11.1,0-14-4.3-17.3-10.6c-1.9-3.4-3.9-6.7-7.2-10.1c-11.1-11.1-21.7-11.1-28.4-11.1H100.3
			c-6.7,0-12,2.9-14.4,7.7c-2.9,4.8-2.4,11.1,1,16.4l7.2,12.5c3.8,6.7,9.1,7.7,13,8.7c3.4,0.5,5.8,1,8.2,5.8l6.7,11.5
			c5.3,9.6,11.1,10.6,15.4,11.5c3.4,0.5,6.7,1,11.1,8.7c4.3,7.7,10.6,19.2,26.5,24.1c1.4,0.5,153.5,44.8,154,44.8
			c15.9,5.3,20.2,11.1,25,18.3c2.9,4.3,11.1,15.9,30.3,21.2l146.3,39.5c15.9,4.3,25.5-3.4,30.3-7.7l26.5-25c3.9-3.4,5.8-4.8,8.2-4.8
			s4.3,1.4,8.2,4.8l26.5,25c4.8,3.9,14.4,11.5,30.3,7.7l146.3-39.5c19.7-5.3,27.4-16.8,30.3-21.2c4.8-7.2,9.1-13.5,25-18.3
			c0,0,152.1-44.3,154-44.8c15.4-4.8,22.1-16.4,26.5-24.1c4.3-7.7,7.2-8.2,10.6-8.7c4.3-1,10.6-1.9,15.9-11.5l6.7-11.5
			c2.9-4.8,4.8-5.3,8.2-5.8c3.8-1,9.1-1.9,13-8.7l7.2-12.5C1107.5,323,1108,317.2,1105.1,312.4L1105.1,312.4z M823.6,346.1v72.2
			H367.4v-72.2L823.6,346.1L823.6,346.1z M660,524.6c-11.1,0-14.9-9.6-17.8-17.3c-3.4-8.7-21.2-65.4-26.5-80.8h22.6
			c12,20.7,34.2,57.3,43.8,72.7c1.9,2.9,6.7,11.1,15.4,16.4C662.9,524.6,663.8,524.6,660,524.6z M713.4,510.2
			c-12.5,0-19.2-9.6-23.1-15.9c-8.2-13-26.9-44.3-40.9-67.9h25c15.9,16.8,49.1,52,62.1,65.4c1.9,1.9,6.3,6.3,12.5,10.1
			C718.2,509.7,718.2,510.2,713.4,510.2L713.4,510.2z M764.4,496.3c-9.6,0-16.8-6.7-21.7-11.5c-11.5-11.5-39-40.4-55.8-58.7h27.4
			c17.3,13,57.3,42.3,73.1,52.9c4.8,3.1,10,5.7,15.4,7.7C767.3,496.3,768.3,496.3,764.4,496.3L764.4,496.3z M828.9,469.3
			c-4.3,6.7-7.7,10.1-15.4,10.1c-7.2,0-14.4-3.4-20.7-7.7c-13-9.1-43.3-30.8-62.6-45.2H763c39.9,19.7,56.8,28.9,67.9,32.2l5.8,1.4
			C833.2,462.6,831.3,465.9,828.9,469.3z M840.9,450.5c-9.1,0-21.2-6.3-57.7-24.5h35.6l50,12.5c3.4,1,6.7,1.4,9.6,2.4
			C850.1,449.6,845.7,450.5,840.9,450.5z M938.1,423.6c-29.4,8.7-34.2,10.6-42.3,10.6c-5.8,0-13-1-25-4.3l-39.5-10.1v-14
			L938.1,423.6L938.1,423.6z M968.9,414.9c-9.6,2.4-18.3,1.4-31.8-1l-104.9-17.3v-11.1l171.8,19.2L968.9,414.9L968.9,414.9z
			 M1033.4,382.7c-1.4,2.4-2.9,4.8-4.3,6.7c-5.8,8.2-9.6,7.7-27.9,5.8L831.3,376v-10.6l195.9,11.5c1.4,0,5.3,0.5,9.6,0.5
			C1035.8,378.8,1034.4,380.8,1033.4,382.7L1033.4,382.7z M1066.6,350.4c0,0-3.9,6.3-5.3,9.6c-5.8,9.1-8.7,9.1-25,7.7l-204.5-12V347
			H1069C1068.1,348.5,1067.6,349.5,1066.6,350.4z M1096,323.5l-5.3,9.1c-3.9,5.8-5.3,5.8-17.8,5.8H647c4.3-5.3,5.8-10.6,10.6-15.4
			c8.2-8.2,14.9-8.2,21.2-8.2h412.4c2.9,0,4.8,1,5.8,2.4C1097.4,318.7,1097.4,321.1,1096,323.5L1096,323.5z M552.2,522.2
			c1.9-2.4,3.4-5.8,5.8-11.5c3.4-8.7,22.1-67.9,27.4-84.2h20.7c5.3,16.8,24.1,75.6,27.4,84.2c1.9,5.8,3.8,9.1,5.8,11.5
			c-0.5-0.5-1.4-1-1.9-1.4l-26.5-25c-4.3-3.8-8.7-7.7-14.9-7.7c-6.3,0-11.1,3.8-14.9,7.7l-26.5,25
			C553.6,521.3,552.7,521.8,552.2,522.2L552.2,522.2z M493.5,515c8.7-5.3,14-13.5,15.4-16.4c9.6-14.9,31.8-52,43.8-72.7h22.6
			c-4.8,15.4-23.1,72.2-26.5,80.8c-2.9,7.7-6.7,17.3-17.8,17.3C527.2,524.6,528.1,524.6,493.5,515L493.5,515z M442.5,501.5
			c6.3-3.4,10.6-7.7,12.5-10.1c13-13,46.7-48.6,62.1-65.4h25c-14,23.6-32.7,54.9-40.9,67.9c-3.9,6.3-10.6,15.9-23.1,15.9
			C473.3,510.2,472.8,509.7,442.5,501.5L442.5,501.5z M388.6,486.6c6.7-1.9,12.5-5.8,15.4-7.7c15.9-10.6,55.8-39.9,73.1-52.9h27.4
			c-16.8,18.3-44.3,47.2-55.8,58.7c-4.8,4.8-11.5,11.5-21.7,11.5C423.2,496.3,423.7,496.3,388.6,486.6L388.6,486.6z M354.9,459.7
			c1.9-0.5,3.9-0.5,5.8-1.4c11.5-3.4,28.4-12,67.9-32.2h32.7c-19.7,14.4-49.6,36.1-62.6,45.2c-5.8,4.3-13.5,7.7-20.7,7.7
			c-7.7,0-11.1-3.4-15.4-10.1C360.2,465.9,357.8,462.6,354.9,459.7L354.9,459.7z M313,441.4c2.9-0.5,6.3-1.4,9.6-2.4l50-12.5h35.6
			c-36.6,18.3-48.6,24.5-57.7,24.5C345.3,450.5,340.9,449.6,313,441.4z M359.7,405.8v14l-39.5,10.1c-12,2.9-19.2,4.3-25,4.3
			c-8.2,0-13-1.9-42.3-10.6C252.9,423.6,359.7,405.8,359.7,405.8z M187.9,404.8l171.8-19.2v11.1L254.8,414c-14,2.4-22.6,3.4-31.8,1
			C223,414.9,187.9,404.8,187.9,404.8z M154.2,377.4c3.9-0.5,8.2-0.5,9.6-0.5l195.9-11.5V376l-169.9,19.2
			c-18.3,1.9-22.1,2.4-27.9-5.8c-1.4-1.9-2.9-4.3-4.3-6.7C156.6,380.8,155.7,378.8,154.2,377.4z M122.5,347.6h237.2v8.7l-204.5,12
			c-16.4,1-19.2,1.4-25-7.7c-1.8-3.2-3.6-6.4-5.3-9.6C123.9,349.5,122.9,348.5,122.5,347.6z M94.6,317.2c1-1.4,2.9-2.4,5.8-2.4
			h412.4c6.3,0,13.5,0,21.2,8.2c4.8,4.8,6.3,10.1,10.6,15.4h-426c-12.5,0-14,0-17.8-5.8l-5.3-9.1C94.1,321.1,93.6,318.7,94.6,317.2
			L94.6,317.2z"/>
	</g>
</g>
</svg>
