<?xml version="1.0" encoding="utf-8"?>
<!-- Generator: Adobe Illustrator 27.2.0, SVG Export Plug-In . SVG Version: 6.00 Build 0)  -->
<svg version="1.1" id="Layer_2_00000116934195892988228500000007697634374470512796_"
	 xmlns="http://www.w3.org/2000/svg" xmlns:xlink="http://www.w3.org/1999/xlink" x="0px" y="0px" viewBox="0 0 272.5 272.7"
	 style="enable-background:new 0 0 272.5 272.7;" xml:space="preserve">
<style type="text/css">
	.st0{fill:#161616;}
	.st1{fill:#FF4D06;}
</style>
<g id="Layer_1-2_00000039816057185095412510000007048232996469961111_">
	<path class="st0" d="M270,123.7c1.1-0.3,2.3-0.6,3.5-0.6c0.8,0,1.5,0.1,2.3,0.2c0-0.2,0-0.3,0-0.5c-0.8,0.2-1.5,0.2-2.4,0.2
		c-1.2,0-2.4-0.2-3.5-0.5c-5.6-1.5-9.7-6.6-9.7-12.7c0-4.3,2.1-8.1,5.2-10.5c1.5-1.2,3.4-2,5.4-2.4c-0.1-0.2-0.1-0.5-0.2-0.7
		c-3.4-0.8-6.2-2.9-8-5.7c-0.9-1.4-1.5-3-1.8-4.7c-0.1-0.8-0.2-1.6-0.2-2.4c0-2.7,0.9-5.2,2.3-7.3c-1.8-3.7-3.8-7.3-5.9-10.8
		c-1.3,1.4-3,2.6-4.8,3.3c0.5,0.9,1,1.8,1.5,2.7c4.1,2.3,6.9,6.5,6.9,11.5c0,0.7-0.1,1.3-0.2,1.9c-0.9,6.4-6.4,11.3-13,11.3
		c-7.3,0-13.2-5.9-13.2-13.2s5.9-13.2,13.2-13.2c-7.3,0-13.2-5.9-13.2-13.2c0-3.1,1.1-6,2.9-8.2c1.2-1.5,2.8-2.8,4.6-3.7
		c-2.7-3.1-5.6-6-8.7-8.8c-0.9,1.8-2.2,3.3-3.8,4.5c-2.2,1.7-5,2.8-8.1,2.8c-7.3,0-13.2-5.9-13.2-13.2c0-1.8,0.4-3.6,1.1-5.2
		c0.8-1.8,2-3.4,3.5-4.7c-3.5-2.2-7.1-4.2-10.8-6.1c-2.1,1.3-4.5,2.2-7.1,2.2c-0.9,0-1.7-0.1-2.5-0.3c-1.8-0.3-3.5-1-4.9-2
		c-2.8-1.9-4.7-4.8-5.4-8.1c-0.2-0.1-0.4-0.1-0.6-0.2c-0.3,2-0.9,3.9-1.9,5.5c-2.4,3.6-6.4,6-11.1,6c-6.6,0-12-4.9-13-11.2
		c-0.1-0.7-0.2-1.3-0.2-2c0-1.3,0.2-2.6,0.6-3.8c-0.4,0-0.7-0.1-1.1-0.1c0.3,1.1,0.5,2.2,0.5,3.3c0,0.9-0.1,1.7-0.3,2.6
		c-1.2,6.1-6.5,10.7-12.9,10.7s-12-4.8-13-11c-0.1-0.7-0.2-1.4-0.2-2.2c0-1.3,0.2-2.5,0.6-3.7c-0.4,0-0.9,0.1-1.4,0.1
		c0.4,1.3,0.8,2.7,0.8,4.2c0,0.5-0.1,1-0.2,1.6c-0.8,6.6-6.3,11.7-13.1,11.7c-5.1,0-9.4-2.9-11.7-7.1c-0.9-1.7-1.4-3.6-1.5-5.6
		c-0.1,0-0.1,0-0.2,0.1c-0.2,2.6-1.2,5-2.7,6.9c-2.4,3.1-6.2,5.2-10.4,5.2c-0.8,0-1.6-0.1-2.3-0.2c-2.6-0.5-4.8-1.7-6.6-3.4
		c-3.8,1.9-7.6,3.9-11.2,6.1c1.8,1,3.4,2.4,4.6,4.1c1.5,2.1,2.4,4.8,2.4,7.6c0,7.3-5.9,13.2-13.2,13.2c-4.3,0-8-2.1-10.5-5.2
		c-1.2-1.6-2.1-3.5-2.5-5.6c-0.3,0.2-0.6,0.5-0.9,0.7c-1.3,4.3-4.7,7.7-9.1,8.9c-0.3,0.3-0.6,0.6-0.9,0.9c2,0.5,3.9,1.4,5.5,2.7
		c2.9,2.4,4.8,6,4.8,10.1c0,7.3-5.9,13.2-13.2,13.2c7.3,0,13.2,5.9,13.2,13.2S42.9,96,35.6,96S22.4,90,22.4,82.7s5.9-13.2,13.2-13.2
		c-2.8,0-5.5-0.9-7.6-2.4c-1.7-1.2-3-2.7-4-4.5c-2.1,3.4-4.1,6.8-6,10.4c1.7,1.5,3,3.4,3.7,5.7c0.4,1.3,0.7,2.6,0.7,4
		c0,5.1-2.9,9.4-7.1,11.6c-1.8,1-3.9,1.6-6.2,1.6c-0.2,0-0.3-0.1-0.5-0.1c0,0,0,0.1,0,0.1c0.1,0,0.1,0,0.2,0c2,0,3.8,0.5,5.5,1.2
		c4.5,2.1,7.7,6.7,7.7,12c0,7.2-5.7,13-12.9,13.2c-0.1,0-0.2,0-0.4,0c-1.9,0-3.7-0.5-5.3-1.2c-0.1,0.9-0.2,1.8-0.2,2.7
		c1.8-0.8,3.6-1.4,5.7-1.4c0.1,0,0.2,0,0.2,0c7.2,0.1,13,6,13,13.2s-5.8,13.1-13,13.2c-0.1,0-0.1,0-0.2,0c-2.1,0-4-0.6-5.7-1.5
		c0.1,0.9,0.1,1.8,0.2,2.6c1.6-0.7,3.4-1.2,5.2-1.2c0.2,0,0.3,0.1,0.5,0.1c7.1,0.3,12.8,6,12.8,13.2c0,5.3-3.2,9.9-7.7,12
		c-1.7,0.8-3.5,1.2-5.5,1.2c-0.1,0-0.1,0-0.2,0c0,0,0,0.1,0,0.1c0.2,0,0.4-0.1,0.6-0.1c2.2,0,4.2,0.6,6,1.5
		c4.3,2.2,7.2,6.6,7.2,11.7c0,1.5-0.3,2.9-0.8,4.2c-0.7,2.2-2,4-3.7,5.5c1.8,3.5,3.8,7,5.9,10.4c1-1.8,2.4-3.3,4.1-4.5
		c2.1-1.4,4.7-2.3,7.4-2.3c7.3,0,13.2,5.9,13.2,13.2c0,4-1.8,7.6-4.7,10c-1.5,1.3-3.4,2.3-5.4,2.8c0.4,0.4,0.8,0.8,1.1,1.2
		c3.9,1.3,7,4.3,8.4,8.3c0.4,0.4,0.9,0.8,1.3,1.2c0.6-2,1.6-3.8,2.9-5.2c2.4-2.6,5.9-4.3,9.7-4.3c7.3,0,13.2,5.9,13.2,13.2
		c0,2.4-0.7,4.6-1.8,6.5c-1,1.8-2.5,3.2-4.1,4.4c3.1,1.9,6.4,3.6,9.7,5.3c1.7-1.7,3.8-3,6.2-3.5c0.9-0.2,1.9-0.4,3-0.4
		c4.6,0,8.6,2.3,11,5.8c1.3,1.9,2,4.3,2.2,6.8c0.1,0,0.2,0,0.3,0.1c0.2-2,0.8-3.9,1.7-5.5c2.3-3.9,6.5-6.5,11.3-6.5
		c6.6,0,12,4.8,13,11.1c0.1,0.7,0.2,1.4,0.2,2.1c0,1.3-0.2,2.5-0.6,3.6c0.5,0,0.9,0.1,1.4,0.1c-0.5-1.4-0.9-2.8-0.9-4.4
		c0-0.5,0.1-1,0.2-1.5c0.7-6.6,6.3-11.8,13.1-11.8s12.2,5,13.1,11.5c0.1,0.6,0.2,1.1,0.2,1.7c0,1.5-0.3,2.9-0.8,4.2
		c0.4,0,0.9-0.1,1.3-0.1c-0.3-1.1-0.5-2.2-0.5-3.4c0-0.8,0.1-1.6,0.2-2.4c1.1-6.2,6.5-10.8,13-10.8c4.6,0,8.6,2.3,11,5.8
		c1.1,1.6,1.7,3.5,2,5.5c0.1,0,0.3-0.1,0.4-0.1c0.2-2.7,1.3-5.1,2.9-7.1c2.4-3,6.1-5,10.3-5c0.5,0,0.9,0.1,1.4,0.1
		c2.7,0.3,5.1,1.4,7,3c3.4-1.8,6.7-3.6,9.9-5.7c-1.5-1.3-2.8-2.8-3.6-4.6c-0.8-1.7-1.2-3.5-1.2-5.5c0-7.3,5.9-13.2,13.2-13.2
		c3.2,0,6.1,1.2,8.4,3.1c1.5,1.3,2.8,2.9,3.6,4.7c3.1-2.8,6-5.8,8.7-8.9c-1.8-0.9-3.4-2.1-4.6-3.6c-1.9-2.3-3-5.1-3-8.3
		c0-7.3,5.9-13.2,13.2-13.2c1.8,0,3.5,0.4,5,1c1.8,0.8,3.5,2,4.8,3.4c2-3.3,3.9-6.8,5.6-10.3c-1.2-2-1.9-4.3-1.9-6.7
		c0-6.1,4.1-11.1,9.7-12.7c0.1-0.3,0.2-0.6,0.3-0.9c-2-0.4-3.8-1.3-5.3-2.5c-3.1-2.4-5-6.1-5-10.3c0-6.1,4.1-11.2,9.7-12.7
		c1.1-0.3,2.3-0.5,3.5-0.5c0.8,0,1.6,0.1,2.4,0.2c0-0.1,0-0.3,0-0.4c-0.7,0.1-1.4,0.2-2.1,0.2c-1.3,0-2.5-0.2-3.6-0.6
		c-5.5-1.6-9.6-6.6-9.6-12.7C260.3,130.3,264.4,125.3,270,123.7L270,123.7z M246.9,96c7.3,0,13.2,5.9,13.2,13.2s-5.9,13.2-13.2,13.2
		s-13.2-5.9-13.2-13.2C233.7,102,239.6,96,246.9,96z M114.9,202.1c-7.3,0-13.2-5.9-13.2-13.2s5.9-13.2,13.2-13.2s13.2,5.9,13.2,13.2
		C128.2,196.2,122.2,202.1,114.9,202.1z M127.9,215.3c0,7.3-5.9,13.2-13.2,13.2s-13.2-5.9-13.2-13.2s5.9-13.2,13.2-13.2
		S127.9,208,127.9,215.3z M48.7,135.7c0,7.3-5.9,13.2-13.2,13.2s-13.2-5.9-13.2-13.2s5.9-13.2,13.2-13.2S48.7,128.4,48.7,135.7z
		 M48.5,109.8c0-7.3,5.9-13.2,13.2-13.2S75,102.5,75,109.8S69,123,61.7,123S48.5,117.1,48.5,109.8z M61.9,123
		c7.3,0,13.2,5.9,13.2,13.2s-5.9,13.2-13.2,13.2s-13.2-5.9-13.2-13.2C48.7,129,54.6,123,61.9,123z M101.7,56.6
		c0-7.3,5.9-13.2,13.2-13.2s13.2,5.9,13.2,13.2s-5.9,13.2-13.2,13.2c7.3,0,13.2,5.9,13.2,13.2s-5.9,13.2-13.2,13.2
		s-13.2-5.9-13.2-13.2s5.9-13.2,13.2-13.2C107.6,69.8,101.7,63.9,101.7,56.6z M128.2,55.9c0-7.3,5.9-13.2,13.2-13.2
		s13.2,5.9,13.2,13.2s-5.9,13.2-13.2,13.2c7.3,0,13.2,5.9,13.2,13.2s-5.9,13.2-13.2,13.2s-13.2-5.9-13.2-13.2s5.9-13.2,13.2-13.2
		C134.1,69.1,128.2,63.2,128.2,55.9z M181.1,55.6c0-7.3,5.9-13.2,13.2-13.2s13.2,5.9,13.2,13.2s-5.9,13.2-13.2,13.2
		c7.3,0,13.2,5.9,13.2,13.2s-5.9,13.2-13.2,13.2s-13.2-5.9-13.2-13.2s5.9-13.2,13.2-13.2C187,68.8,181.1,62.9,181.1,55.6z
		 M114.8,149.2c-7.3,0-13.2-5.9-13.2-13.2s5.9-13.2,13.2-13.2s13.2,5.9,13.2,13.2C128,143.2,122.1,149.2,114.8,149.2z M127.7,162.4
		c0,7.3-5.9,13.2-13.2,13.2s-13.2-5.9-13.2-13.2s5.9-13.2,13.2-13.2S127.7,155.1,127.7,162.4z M88.3,148.6
		c-7.3,0-13.2-5.9-13.2-13.2s5.9-13.2,13.2-13.2s13.2,5.9,13.2,13.2S95.6,148.6,88.3,148.6z M154.3,109.4c0-7.3,5.9-13.2,13.2-13.2
		s13.2,5.9,13.2,13.2s-5.9,13.2-13.2,13.2C160.2,122.6,154.3,116.7,154.3,109.4z M154.5,135.3c0,7.3-5.9,13.2-13.2,13.2
		s-13.2-5.9-13.2-13.2c0-7.3,5.9-13.2,13.2-13.2S154.5,128,154.5,135.3z M141.1,122c-7.3,0-13.2-5.9-13.2-13.2s5.9-13.2,13.2-13.2
		s13.2,5.9,13.2,13.2C154.3,116.1,148.4,122,141.1,122z M140.9,148.5c7.3,0,13.2,5.9,13.2,13.2s-5.9,13.2-13.2,13.2
		s-13.2-5.9-13.2-13.2C127.7,154.4,133.7,148.5,140.9,148.5z M141.4,175c7.3,0,13.2,5.9,13.2,13.2s-5.9,13.2-13.2,13.2
		s-13.2-5.9-13.2-13.2S134.1,175,141.4,175z M154.2,162.3c0-7.3,5.9-13.2,13.2-13.2s13.2,5.9,13.2,13.2s-5.9,13.2-13.2,13.2
		S154.2,169.6,154.2,162.3z M167.7,149.1c-7.3,0-13.2-5.9-13.2-13.2s5.9-13.2,13.2-13.2s13.2,5.9,13.2,13.2
		C180.9,143.2,175,149.1,167.7,149.1z M193.8,148.2c7.3,0,13.2,5.9,13.2,13.2s-5.9,13.2-13.2,13.2s-13.2-5.9-13.2-13.2
		S186.5,148.2,193.8,148.2z M194.1,148.2c-7.3,0-13.2-5.9-13.2-13.2c0-7.3,5.9-13.2,13.2-13.2s13.2,5.9,13.2,13.2
		C207.3,142.3,201.4,148.2,194.1,148.2z M207.2,109.1c0-7.3,5.9-13.2,13.2-13.2s13.2,5.9,13.2,13.2s-5.9,13.2-13.2,13.2
		C213.1,122.3,207.2,116.4,207.2,109.1z M194,121.7c-7.3,0-13.2-5.9-13.2-13.2s5.9-13.2,13.2-13.2s13.2,5.9,13.2,13.2
		C207.2,115.8,201.3,121.7,194,121.7z M167.8,69.7c7.3,0,13.2,5.9,13.2,13.2s-5.9,13.2-13.2,13.2s-13.2-5.9-13.2-13.2
		S160.5,69.7,167.8,69.7c-7.3,0-13.2-5.9-13.2-13.2s5.9-13.2,13.2-13.2S181,49.2,181,56.5S175.1,69.7,167.8,69.7z M114.6,96.2
		c7.3,0,13.2,5.9,13.2,13.2s-5.9,13.2-13.2,13.2s-13.2-5.9-13.2-13.2S107.3,96.2,114.6,96.2z M88.2,122.1c-7.3,0-13.2-5.9-13.2-13.2
		s5.9-13.2,13.2-13.2s13.2,5.9,13.2,13.2S95.5,122.1,88.2,122.1z M61.6,149.5c7.3,0,13.2,5.9,13.2,13.2s-5.9,13.2-13.2,13.2
		s-13.2-5.9-13.2-13.2C48.4,155.4,54.3,149.5,61.6,149.5z M62,175.9c7.3,0,13.2,5.9,13.2,13.2s-5.9,13.2-13.2,13.2
		s-13.2-5.9-13.2-13.2C48.8,181.9,54.7,175.9,62,175.9z M74.8,161.8c0-7.3,5.9-13.2,13.2-13.2s13.2,5.9,13.2,13.2S95.3,175,88,175
		S74.8,169.1,74.8,161.8z M88.5,175c7.3,0,13.2,5.9,13.2,13.2s-5.9,13.2-13.2,13.2s-13.2-5.9-13.2-13.2
		C75.2,180.9,81.1,175,88.5,175z M141.1,201.4c7.3,0,13.2,5.9,13.2,13.2s-5.9,13.2-13.2,13.2s-13.2-5.9-13.2-13.2
		C127.8,207.3,133.8,201.4,141.1,201.4z M167.5,202c7.3,0,13.2,5.9,13.2,13.2s-5.9,13.2-13.2,13.2s-13.2-5.9-13.2-13.2
		S160.2,202,167.5,202z M167.8,202c-7.3,0-13.2-5.9-13.2-13.2s5.9-13.2,13.2-13.2s13.2,5.9,13.2,13.2S175.1,202,167.8,202z
		 M194,201.1c7.3,0,13.2,5.9,13.2,13.2s-5.9,13.2-13.2,13.2s-13.2-5.9-13.2-13.2C180.7,207,186.7,201.1,194,201.1z M194.2,201.1
		c-7.3,0-13.2-5.9-13.2-13.2s5.9-13.2,13.2-13.2s13.2,5.9,13.2,13.2C207.5,195.2,201.6,201.1,194.2,201.1z M207,162
		c0-7.3,5.9-13.2,13.2-13.2s13.2,5.9,13.2,13.2s-5.9,13.2-13.2,13.2S207,169.3,207,162z M220.6,148.8c-7.3,0-13.2-5.9-13.2-13.2
		s5.9-13.2,13.2-13.2s13.2,5.9,13.2,13.2S227.9,148.8,220.6,148.8z M220.7,43c7.3,0,13.2,5.9,13.2,13.2s-5.9,13.2-13.2,13.2
		c7.3,0,13.2,5.9,13.2,13.2s-5.9,13.2-13.2,13.2s-13.2-5.9-13.2-13.2s5.9-13.2,13.2-13.2c-7.3,0-13.2-5.9-13.2-13.2
		S213.4,43,220.7,43z M192.9,16.1c0.6-0.1,1.1-0.2,1.6-0.2c5.1,0,9.4,2.9,11.6,7c1,1.9,1.6,3.9,1.6,6.2c0,7.3-5.9,13.2-13.2,13.2
		s-13.2-5.9-13.2-13.2C181.3,22.4,186.4,16.9,192.9,16.1L192.9,16.1z M168.1,16.8c7.3,0,13.2,5.9,13.2,13.2s-5.9,13.2-13.2,13.2
		s-13.2-5.9-13.2-13.2C154.9,22.8,160.8,16.8,168.1,16.8z M141.6,16.2c7.3,0,13.2,5.9,13.2,13.2s-5.9,13.2-13.2,13.2
		s-13.2-5.9-13.2-13.2C128.4,22.2,134.3,16.2,141.6,16.2z M115.2,16.9c7.3,0,13.2,5.9,13.2,13.2s-5.9,13.2-13.2,13.2
		S102,37.4,102,30.1S107.9,16.9,115.2,16.9z M88.7,16.3c7.3,0,13.2,5.9,13.2,13.2S96,42.7,88.7,42.7s-13.2-5.9-13.2-13.2
		C75.5,22.2,81.4,16.3,88.7,16.3z M88.4,42.7c7.3,0,13.2,5.9,13.2,13.2s-5.9,13.2-13.2,13.2c7.3,0,13.2,5.9,13.2,13.2
		s-5.9,13.2-13.2,13.2s-13.2-5.9-13.2-13.2s5.9-13.2,13.2-13.2c-7.3,0-13.2-5.9-13.2-13.2S81.1,42.7,88.4,42.7z M62,70.1
		c-7.3,0-13.2-5.9-13.2-13.2S54.7,43.7,62,43.7s13.2,5.9,13.2,13.2C75.2,64.2,69.3,70.1,62,70.1c7.3,0,13.2,5.9,13.2,13.2
		S69.3,96.6,62,96.6s-13.2-5.9-13.2-13.2C48.8,76,54.7,70.1,62,70.1z M22,109.2C22,101.9,28,96,35.3,96s13.2,5.9,13.2,13.2
		s-5.9,13.2-13.2,13.2S22,116.5,22,109.2z M21.9,162.1c0-7.3,5.9-13.2,13.2-13.2s13.2,5.9,13.2,13.2s-5.9,13.2-13.2,13.2
		C27.8,175.3,21.9,169.4,21.9,162.1z M35.5,201.8c-7.3,0-13.2-5.9-13.2-13.2s5.9-13.2,13.2-13.2s13.2,5.9,13.2,13.2
		C48.8,195.9,42.8,201.8,35.5,201.8z M61.7,228.8c-7.3,0-13.2-5.9-13.2-13.2s5.9-13.2,13.2-13.2s13.2,5.9,13.2,13.2
		S69,228.8,61.7,228.8z M74.9,214.7c0-7.3,5.9-13.2,13.2-13.2s13.2,5.9,13.2,13.2s-5.9,13.2-13.2,13.2S74.9,222,74.9,214.7z
		 M88.3,254.4c-7.3,0-13.2-5.9-13.2-13.2S81,228,88.3,228s13.2,5.9,13.2,13.2S95.6,254.4,88.3,254.4z M114.8,255
		c-7.3,0-13.2-5.9-13.2-13.2s5.9-13.2,13.2-13.2s13.2,5.9,13.2,13.2C128,249.1,122.1,255,114.8,255z M141.2,254.4
		c-7.3,0-13.2-5.9-13.2-13.2s5.9-13.2,13.2-13.2s13.2,5.9,13.2,13.2S148.5,254.4,141.2,254.4z M167.6,255c-7.3,0-13.2-5.9-13.2-13.2
		s5.9-13.2,13.2-13.2s13.2,5.9,13.2,13.2C180.9,249,175,255,167.6,255z M203.8,249.7c-2.6,1.5-5.2,2.9-7.9,4.1
		c-0.6,0.1-1.2,0.2-1.9,0.2c-7.3,0-13.2-5.9-13.2-13.2s5.9-13.2,13.2-13.2s13.2,5.9,13.2,13.2C207.3,244.3,206,247.4,203.8,249.7
		L203.8,249.7z M220.4,228.2c-7.3,0-13.2-5.9-13.2-13.2s5.9-13.2,13.2-13.2s13.2,5.9,13.2,13.2S227.7,228.2,220.4,228.2z
		 M220.7,201.7c-7.3,0-13.2-5.9-13.2-13.2s5.9-13.2,13.2-13.2s13.2,5.9,13.2,13.2S228,201.7,220.7,201.7z M260.2,186.6
		c0.1,0.7,0.2,1.3,0.2,2c0,5-2.8,9.4-7,11.6c-1.9,1-4,1.6-6.2,1.6c-7.3,0-13.2-5.9-13.2-13.2s5.9-13.2,13.2-13.2
		C253.8,175.4,259.2,180.3,260.2,186.6L260.2,186.6z M246.7,175.4c-7.3,0-13.2-5.9-13.2-13.2s5.9-13.2,13.2-13.2s13.2,5.9,13.2,13.2
		C259.9,169.5,254,175.4,246.7,175.4L246.7,175.4z M247,149c-7.3,0-13.2-5.9-13.2-13.2s5.9-13.2,13.2-13.2s13.2,5.9,13.2,13.2
		S254.3,149,247,149L247,149z"/>
</g>
<g id="Layer_1-2">
	<path class="st1" d="M266.7,124.4c1.1-0.3,2.3-0.6,3.5-0.6c0.8,0,1.5,0.1,2.3,0.2c0-0.2,0-0.3,0-0.5c-0.8,0.2-1.5,0.2-2.4,0.2
		c-1.2,0-2.4-0.2-3.5-0.5c-5.6-1.5-9.7-6.6-9.7-12.7c0-4.3,2.1-8.1,5.2-10.5c1.5-1.2,3.4-2,5.4-2.4c-0.1-0.2-0.1-0.5-0.2-0.7
		c-3.4-0.8-6.2-2.9-8-5.7c-0.9-1.4-1.5-3-1.8-4.7c-0.1-0.8-0.2-1.6-0.2-2.4c0-2.7,0.9-5.2,2.3-7.3c-1.8-3.7-3.8-7.3-5.9-10.8
		c-1.3,1.4-3,2.6-4.8,3.3c0.5,0.9,1,1.8,1.5,2.7c4.1,2.3,6.9,6.5,6.9,11.5c0,0.7-0.1,1.3-0.2,1.9c-0.9,6.4-6.4,11.3-13,11.3
		c-7.3,0-13.2-5.9-13.2-13.2s5.9-13.2,13.2-13.2c-7.3,0-13.2-5.9-13.2-13.2c0-3.1,1.1-6,2.9-8.2c1.2-1.5,2.8-2.8,4.6-3.7
		c-2.7-3.1-5.6-6-8.7-8.8c-0.9,1.8-2.2,3.3-3.8,4.5c-2.2,1.7-5,2.8-8.1,2.8c-7.3,0-13.2-5.9-13.2-13.2c0-1.8,0.4-3.6,1.1-5.2
		c0.8-1.8,2-3.4,3.5-4.7c-3.5-2.2-7.1-4.2-10.8-6.1c-2.1,1.3-4.5,2.2-7.1,2.2c-0.9,0-1.7-0.1-2.5-0.3c-1.8-0.3-3.5-1-4.9-2
		c-2.8-1.9-4.7-4.8-5.4-8.1c-0.2-0.1-0.4-0.1-0.6-0.2c-0.3,2-0.9,3.9-1.9,5.5c-2.4,3.6-6.4,6-11.1,6c-6.6,0-12-4.9-13-11.2
		c-0.1-0.7-0.2-1.3-0.2-2c0-1.3,0.2-2.6,0.6-3.8c-0.4,0-0.7-0.1-1.1-0.1c0.3,1.1,0.5,2.2,0.5,3.3c0,0.9-0.1,1.7-0.3,2.6
		c-1.2,6.1-6.5,10.7-12.9,10.7s-12-4.8-13-11c-0.1-0.7-0.2-1.4-0.2-2.2c0-1.3,0.2-2.5,0.6-3.7c-0.4,0-0.9,0.1-1.4,0.1
		c0.4,1.3,0.8,2.7,0.8,4.2c0,0.5-0.1,1-0.2,1.6c-0.8,6.6-6.3,11.7-13.1,11.7c-5.1,0-9.4-2.9-11.7-7.1c-0.9-1.7-1.4-3.6-1.5-5.6
		c-0.1,0-0.1,0-0.2,0.1c-0.2,2.6-1.2,5-2.7,6.9c-2.4,3.1-6.2,5.2-10.4,5.2c-0.8,0-1.6-0.1-2.3-0.2c-2.6-0.5-4.8-1.7-6.6-3.4
		c-3.8,1.9-7.6,3.9-11.2,6.1c1.8,1,3.4,2.4,4.6,4.1c1.5,2.1,2.4,4.8,2.4,7.6c0,7.3-5.9,13.2-13.2,13.2c-4.3,0-8-2.1-10.5-5.2
		c-1.2-1.6-2.1-3.5-2.5-5.6c-0.3,0.2-0.6,0.5-0.9,0.7c-1.3,4.3-4.7,7.7-9.1,8.9c-0.3,0.3-0.6,0.6-0.9,0.9c2,0.5,3.9,1.4,5.5,2.7
		c2.9,2.4,4.8,6,4.8,10.1c0,7.3-5.9,13.2-13.2,13.2c7.3,0,13.2,5.9,13.2,13.2s-5.9,13.2-13.2,13.2s-13.2-5.9-13.2-13.2
		s5.9-13.2,13.2-13.2c-2.8,0-5.5-0.9-7.6-2.4c-1.7-1.2-3-2.7-4-4.5c-2.1,3.4-4.1,6.8-5.9,10.4c1.7,1.5,3,3.4,3.7,5.7
		c0.4,1.3,0.7,2.6,0.7,4c0,5.1-2.9,9.4-7.1,11.6c-1.8,1-3.9,1.6-6.2,1.6c-0.2,0-0.3-0.1-0.5-0.1c0,0,0,0.1,0,0.1c0.1,0,0.1,0,0.2,0
		c2,0,3.8,0.5,5.5,1.2c4.5,2.1,7.7,6.7,7.7,12c0,7.2-5.7,13-12.9,13.2c-0.1,0-0.2,0-0.4,0c-1.9,0-3.7-0.5-5.3-1.2
		c-0.1,0.9-0.2,1.8-0.2,2.7c1.8-0.8,3.6-1.4,5.7-1.4c0.1,0,0.2,0,0.2,0c7.2,0.1,13,6,13,13.2s-5.8,13.1-13,13.2c-0.1,0-0.1,0-0.2,0
		c-2.1,0-4-0.6-5.7-1.5c0.1,0.9,0.1,1.8,0.2,2.6c1.6-0.7,3.4-1.2,5.2-1.2c0.2,0,0.3,0.1,0.5,0.1c7.1,0.3,12.8,6,12.8,13.2
		c0,5.3-3.2,9.9-7.7,12c-1.7,0.8-3.5,1.2-5.5,1.2c-0.1,0-0.1,0-0.2,0c0,0,0,0.1,0,0.1c0.2,0,0.4-0.1,0.6-0.1c2.2,0,4.2,0.6,6,1.5
		c4.3,2.2,7.2,6.6,7.2,11.7c0,1.5-0.3,2.9-0.8,4.2c-0.7,2.2-2,4-3.7,5.5c1.8,3.5,3.8,7,5.9,10.4c1-1.8,2.4-3.3,4.1-4.5
		c2.1-1.4,4.7-2.3,7.4-2.3c7.3,0,13.2,5.9,13.2,13.2c0,4-1.8,7.6-4.7,10c-1.5,1.3-3.4,2.3-5.4,2.8c0.4,0.4,0.8,0.8,1.1,1.2
		c3.9,1.3,7,4.3,8.4,8.3c0.4,0.4,0.9,0.8,1.3,1.2c0.6-2,1.6-3.8,2.9-5.2c2.4-2.6,5.9-4.3,9.7-4.3c7.3,0,13.2,5.9,13.2,13.2
		c0,2.4-0.7,4.6-1.8,6.5c-1,1.8-2.5,3.2-4.1,4.4c3.1,1.9,6.4,3.6,9.7,5.3c1.7-1.7,3.8-3,6.2-3.5c0.9-0.2,1.9-0.4,3-0.4
		c4.6,0,8.6,2.3,11,5.8c1.3,1.9,2,4.3,2.2,6.8c0.1,0,0.2,0,0.3,0.1c0.2-2,0.8-3.9,1.7-5.5c2.3-3.9,6.5-6.5,11.3-6.5
		c6.6,0,12,4.8,13,11.1c0.1,0.7,0.2,1.4,0.2,2.1c0,1.3-0.2,2.5-0.6,3.6c0.5,0,0.9,0.1,1.4,0.1c-0.5-1.4-0.9-2.8-0.9-4.4
		c0-0.5,0.1-1,0.2-1.5c0.7-6.6,6.3-11.8,13.1-11.8s12.2,5,13.1,11.5c0.1,0.6,0.2,1.1,0.2,1.7c0,1.5-0.3,2.9-0.8,4.2
		c0.4,0,0.9-0.1,1.3-0.1c-0.3-1.1-0.5-2.2-0.5-3.4c0-0.8,0.1-1.6,0.2-2.4c1.1-6.2,6.5-10.8,13-10.8c4.6,0,8.6,2.3,11,5.8
		c1.1,1.6,1.7,3.5,2,5.5c0.1,0,0.3-0.1,0.4-0.1c0.2-2.7,1.3-5.1,2.9-7.1c2.4-3,6.1-5,10.3-5c0.5,0,0.9,0.1,1.4,0.1
		c2.7,0.3,5.1,1.4,7,3c3.4-1.8,6.7-3.6,9.9-5.7c-1.5-1.3-2.8-2.8-3.6-4.6c-0.8-1.7-1.2-3.5-1.2-5.5c0-7.3,5.9-13.2,13.2-13.2
		c3.2,0,6.1,1.2,8.4,3.1c1.5,1.3,2.8,2.9,3.6,4.7c3.1-2.8,6-5.8,8.7-8.9c-1.8-0.9-3.4-2.1-4.6-3.6c-1.9-2.3-3-5.1-3-8.3
		c0-7.3,5.9-13.2,13.2-13.2c1.8,0,3.5,0.4,5,1c1.8,0.8,3.5,2,4.8,3.4c2-3.3,3.9-6.8,5.6-10.3c-1.2-2-1.9-4.3-1.9-6.7
		c0-6.1,4.1-11.1,9.7-12.7c0.1-0.3,0.2-0.6,0.3-0.9c-2-0.4-3.8-1.3-5.3-2.5c-3.1-2.4-5-6.1-5-10.3c0-6.1,4.1-11.2,9.7-12.7
		c1.1-0.3,2.3-0.5,3.5-0.5c0.8,0,1.6,0.1,2.4,0.2c0-0.1,0-0.3,0-0.4c-0.7,0.1-1.4,0.2-2.1,0.2c-1.3,0-2.5-0.2-3.6-0.6
		c-5.5-1.6-9.6-6.6-9.6-12.7C257,131,261.2,125.9,266.7,124.4L266.7,124.4z M243.7,96.7c7.3,0,13.2,5.9,13.2,13.2
		s-5.9,13.2-13.2,13.2s-13.2-5.9-13.2-13.2C230.4,102.7,236.4,96.7,243.7,96.7z M111.7,202.8c-7.3,0-13.2-5.9-13.2-13.2
		s5.9-13.2,13.2-13.2s13.2,5.9,13.2,13.2C124.9,196.8,119,202.8,111.7,202.8z M124.6,216c0,7.3-5.9,13.2-13.2,13.2
		s-13.2-5.9-13.2-13.2s5.9-13.2,13.2-13.2S124.6,208.7,124.6,216z M45.4,136.3c0,7.3-5.9,13.2-13.2,13.2S19,143.6,19,136.3
		s5.9-13.2,13.2-13.2S45.4,129,45.4,136.3z M45.3,110.5c0-7.3,5.9-13.2,13.2-13.2s13.2,5.9,13.2,13.2s-5.9,13.2-13.2,13.2
		S45.3,117.8,45.3,110.5z M58.6,123.7c7.3,0,13.2,5.9,13.2,13.2s-5.9,13.2-13.2,13.2s-13.2-5.9-13.2-13.2
		C45.4,129.6,51.3,123.7,58.6,123.7z M98.4,57.2c0-7.3,5.9-13.2,13.2-13.2s13.2,5.9,13.2,13.2s-5.9,13.2-13.2,13.2
		c7.3,0,13.2,5.9,13.2,13.2s-5.9,13.2-13.2,13.2S98.4,91,98.4,83.7s5.9-13.2,13.2-13.2C104.4,70.5,98.4,64.6,98.4,57.2z M124.9,56.6
		c0-7.3,5.9-13.2,13.2-13.2s13.2,5.9,13.2,13.2s-5.9,13.2-13.2,13.2c7.3,0,13.2,5.9,13.2,13.2s-5.9,13.2-13.2,13.2
		s-13.2-5.9-13.2-13.2s5.9-13.2,13.2-13.2C130.8,69.8,124.9,63.9,124.9,56.6z M177.8,56.3c0-7.3,5.9-13.2,13.2-13.2
		s13.2,5.9,13.2,13.2s-5.9,13.2-13.2,13.2c7.3,0,13.2,5.9,13.2,13.2s-5.9,13.2-13.2,13.2s-13.2-5.9-13.2-13.2s5.9-13.2,13.2-13.2
		C183.7,69.5,177.8,63.6,177.8,56.3z M111.5,149.8c-7.3,0-13.2-5.9-13.2-13.2s5.9-13.2,13.2-13.2s13.2,5.9,13.2,13.2
		C124.8,143.9,118.8,149.8,111.5,149.8z M124.5,163.1c0,7.3-5.9,13.2-13.2,13.2S98,170.4,98,163.1s5.9-13.2,13.2-13.2
		S124.5,155.8,124.5,163.1z M85.1,149.2c-7.3,0-13.2-5.9-13.2-13.2s5.9-13.2,13.2-13.2s13.2,5.9,13.2,13.2S92.4,149.2,85.1,149.2z
		 M151.1,110.1c0-7.3,5.9-13.2,13.2-13.2s13.2,5.9,13.2,13.2s-5.9,13.2-13.2,13.2C157,123.3,151.1,117.4,151.1,110.1z M151.2,136
		c0,7.3-5.9,13.2-13.2,13.2s-13.2-5.9-13.2-13.2s5.9-13.2,13.2-13.2S151.2,128.7,151.2,136z M137.8,122.7c-7.3,0-13.2-5.9-13.2-13.2
		s5.9-13.2,13.2-13.2s13.2,5.9,13.2,13.2C151.1,116.8,145.1,122.7,137.8,122.7z M137.7,149.2c7.3,0,13.2,5.9,13.2,13.2
		s-5.9,13.2-13.2,13.2s-13.2-5.9-13.2-13.2C124.5,155.1,130.4,149.2,137.7,149.2z M138.1,175.6c7.3,0,13.2,5.9,13.2,13.2
		s-5.9,13.2-13.2,13.2s-13.2-5.9-13.2-13.2S130.8,175.6,138.1,175.6z M150.9,163c0-7.3,5.9-13.2,13.2-13.2s13.2,5.9,13.2,13.2
		s-5.9,13.2-13.2,13.2S150.9,170.3,150.9,163z M164.4,149.8c-7.3,0-13.2-5.9-13.2-13.2s5.9-13.2,13.2-13.2s13.2,5.9,13.2,13.2
		C177.7,143.9,171.7,149.8,164.4,149.8z M190.6,148.9c7.3,0,13.2,5.9,13.2,13.2s-5.9,13.2-13.2,13.2s-13.2-5.9-13.2-13.2
		S183.3,148.9,190.6,148.9z M190.9,148.9c-7.3,0-13.2-5.9-13.2-13.2s5.9-13.2,13.2-13.2s13.2,5.9,13.2,13.2
		C204.1,143,198.2,148.9,190.9,148.9z M204,109.8c0-7.3,5.9-13.2,13.2-13.2s13.2,5.9,13.2,13.2s-5.9,13.2-13.2,13.2
		C209.9,123,204,117.1,204,109.8z M190.7,122.4c-7.3,0-13.2-5.9-13.2-13.2s5.9-13.2,13.2-13.2s13.2,5.9,13.2,13.2
		C203.9,116.5,198,122.4,190.7,122.4z M164.6,70.4c7.3,0,13.2,5.9,13.2,13.2s-5.9,13.2-13.2,13.2s-13.2-5.9-13.2-13.2
		S157.2,70.4,164.6,70.4c-7.3,0-13.2-5.9-13.2-13.2S157.2,44,164.6,44s13.2,5.9,13.2,13.2S171.9,70.4,164.6,70.4z M111.4,96.9
		c7.3,0,13.2,5.9,13.2,13.2s-5.9,13.2-13.2,13.2s-13.2-5.9-13.2-13.2S104.1,96.9,111.4,96.9z M84.9,122.8c-7.3,0-13.2-5.9-13.2-13.2
		s5.9-13.2,13.2-13.2s13.2,5.9,13.2,13.2S92.2,122.8,84.9,122.8z M58.3,150.2c7.3,0,13.2,5.9,13.2,13.2s-5.9,13.2-13.2,13.2
		s-13.2-5.9-13.2-13.2C45.1,156.1,51,150.2,58.3,150.2z M58.7,176.6c7.3,0,13.2,5.9,13.2,13.2s-5.9,13.2-13.2,13.2
		s-13.2-5.9-13.2-13.2C45.5,182.5,51.4,176.6,58.7,176.6z M71.6,162.5c0-7.3,5.9-13.2,13.2-13.2S98,155.2,98,162.5
		s-5.9,13.2-13.2,13.2S71.6,169.8,71.6,162.5z M85.2,175.7c7.3,0,13.2,5.9,13.2,13.2s-5.9,13.2-13.2,13.2S72,196.2,72,188.9
		C72,181.6,77.9,175.7,85.2,175.7z M137.8,202.1c7.3,0,13.2,5.9,13.2,13.2s-5.9,13.2-13.2,13.2s-13.2-5.9-13.2-13.2
		C124.6,208,130.5,202.1,137.8,202.1z M164.3,202.7c7.3,0,13.2,5.9,13.2,13.2s-5.9,13.2-13.2,13.2s-13.2-5.9-13.2-13.2
		S157,202.7,164.3,202.7z M164.5,202.7c-7.3,0-13.2-5.9-13.2-13.2s5.9-13.2,13.2-13.2s13.2,5.9,13.2,13.2S171.8,202.7,164.5,202.7z
		 M190.7,201.8c7.3,0,13.2,5.9,13.2,13.2s-5.9,13.2-13.2,13.2s-13.2-5.9-13.2-13.2C177.5,207.7,183.4,201.8,190.7,201.8z M191,201.8
		c-7.3,0-13.2-5.9-13.2-13.2s5.9-13.2,13.2-13.2s13.2,5.9,13.2,13.2C204.2,195.9,198.3,201.8,191,201.8z M203.8,162.7
		c0-7.3,5.9-13.2,13.2-13.2s13.2,5.9,13.2,13.2s-5.9,13.2-13.2,13.2S203.8,170,203.8,162.7z M217.3,149.5c-7.3,0-13.2-5.9-13.2-13.2
		S210,123,217.3,123s13.2,5.9,13.2,13.2S224.6,149.5,217.3,149.5z M217.4,43.6c7.3,0,13.2,5.9,13.2,13.2s-5.9,13.2-13.2,13.2
		c7.3,0,13.2,5.9,13.2,13.2s-5.9,13.2-13.2,13.2s-13.2-5.9-13.2-13.2s5.9-13.2,13.2-13.2c-7.3,0-13.2-5.9-13.2-13.2
		S210.1,43.6,217.4,43.6z M189.6,16.8c0.6-0.1,1.1-0.2,1.6-0.2c5.1,0,9.4,2.9,11.6,7c1,1.9,1.6,3.9,1.6,6.2
		c0,7.3-5.9,13.2-13.2,13.2s-13.2-5.9-13.2-13.2C178.1,23.1,183.1,17.6,189.6,16.8L189.6,16.8z M164.8,17.5
		c7.3,0,13.2,5.9,13.2,13.2S172.1,44,164.8,44s-13.2-5.9-13.2-13.2C151.6,23.4,157.5,17.5,164.8,17.5z M138.4,16.9
		c7.3,0,13.2,5.9,13.2,13.2s-5.9,13.2-13.2,13.2s-13.2-5.9-13.2-13.2C125.2,22.8,131.1,16.9,138.4,16.9z M111.9,17.6
		c7.3,0,13.2,5.9,13.2,13.2S119.2,44,111.9,44s-13.2-5.9-13.2-13.2S104.6,17.6,111.9,17.6z M85.5,17c7.3,0,13.2,5.9,13.2,13.2
		s-5.9,13.2-13.2,13.2s-13.2-5.9-13.2-13.2C72.2,22.9,78.2,17,85.5,17z M85.2,43.4c7.3,0,13.2,5.9,13.2,13.2s-5.9,13.2-13.2,13.2
		c7.3,0,13.2,5.9,13.2,13.2s-5.9,13.2-13.2,13.2S72,90.4,72,83.1s5.9-13.2,13.2-13.2c-7.3,0-13.2-5.9-13.2-13.2S77.9,43.4,85.2,43.4
		z M58.7,70.8c-7.3,0-13.2-5.9-13.2-13.2s5.9-13.2,13.2-13.2S72,50.3,72,57.6C72,64.9,66,70.8,58.7,70.8C66,70.8,72,76.7,72,84
		S66,97.2,58.7,97.2S45.5,91.3,45.5,84C45.5,76.7,51.4,70.8,58.7,70.8z M18.8,109.9c0-7.3,5.9-13.2,13.2-13.2s13.2,5.9,13.2,13.2
		s-5.9,13.2-13.2,13.2S18.8,117.2,18.8,109.9z M18.6,162.8c0-7.3,5.9-13.2,13.2-13.2s13.2,5.9,13.2,13.2S39.2,176,31.9,176
		C24.6,176,18.6,170.1,18.6,162.8z M32.3,202.5c-7.3,0-13.2-5.9-13.2-13.2S25,176,32.3,176s13.2,5.9,13.2,13.2
		C45.5,196.5,39.6,202.5,32.3,202.5z M58.5,229.5c-7.3,0-13.2-5.9-13.2-13.2s5.9-13.2,13.2-13.2s13.2,5.9,13.2,13.2
		S65.7,229.5,58.5,229.5z M71.7,215.4c0-7.3,5.9-13.2,13.2-13.2s13.2,5.9,13.2,13.2s-5.9,13.2-13.2,13.2S71.7,222.7,71.7,215.4z
		 M85.1,255.1c-7.3,0-13.2-5.9-13.2-13.2s5.9-13.2,13.2-13.2s13.2,5.9,13.2,13.2S92.3,255.1,85.1,255.1z M111.5,255.7
		c-7.3,0-13.2-5.9-13.2-13.2s5.9-13.2,13.2-13.2s13.2,5.9,13.2,13.2C124.7,249.8,118.8,255.7,111.5,255.7z M137.9,255
		c-7.3,0-13.2-5.9-13.2-13.2s5.9-13.2,13.2-13.2s13.2,5.9,13.2,13.2S145.2,255,137.9,255z M164.4,255.6c-7.3,0-13.2-5.9-13.2-13.2
		s5.9-13.2,13.2-13.2s13.2,5.9,13.2,13.2C177.6,249.7,171.7,255.6,164.4,255.6z M200.6,250.4c-2.6,1.5-5.2,2.9-7.9,4.1
		c-0.6,0.1-1.2,0.2-1.9,0.2c-7.3,0-13.2-5.9-13.2-13.2s5.9-13.2,13.2-13.2s13.2,5.9,13.2,13.2C204.1,244.9,202.7,248,200.6,250.4
		L200.6,250.4z M217.2,228.8c-7.3,0-13.2-5.9-13.2-13.2s5.9-13.2,13.2-13.2s13.2,5.9,13.2,13.2S224.5,228.8,217.2,228.8z
		 M217.4,202.4c-7.3,0-13.2-5.9-13.2-13.2s5.9-13.2,13.2-13.2s13.2,5.9,13.2,13.2S224.7,202.4,217.4,202.4z M256.9,187.3
		c0.1,0.7,0.2,1.3,0.2,2c0,5-2.8,9.4-7,11.6c-1.9,1-4,1.6-6.2,1.6c-7.3,0-13.2-5.9-13.2-13.2s5.9-13.2,13.2-13.2
		C250.5,176.1,255.9,181,256.9,187.3L256.9,187.3z M243.5,176.1c-7.3,0-13.2-5.9-13.2-13.2s5.9-13.2,13.2-13.2s13.2,5.9,13.2,13.2
		C256.7,170.2,250.8,176.1,243.5,176.1L243.5,176.1z M243.7,149.7c-7.3,0-13.2-5.9-13.2-13.2s5.9-13.2,13.2-13.2s13.2,5.9,13.2,13.2
		S251,149.7,243.7,149.7L243.7,149.7z"/>
</g>
</svg>
