<?xml version="1.0" encoding="UTF-8"?>
<svg id="Layer_2" data-name="Layer 2" xmlns="http://www.w3.org/2000/svg" viewBox="0 0 234.09 234.09">
  <defs>
    <style>
      .cls-1 {
        fill: #ff4d06;
      }
    </style>
  </defs>
  <g id="Layer_1-2" data-name="Layer 1">
    <path class="cls-1" d="m117.05,0C52.51,0,0,52.51,0,117.05s52.51,117.04,117.05,117.04,117.05-52.51,117.05-117.04c0-64.54-52.51-117.05-117.05-117.05Zm0,222.33c-58.05,0-105.28-47.23-105.28-105.28S59,11.77,117.05,11.77s105.28,47.22,105.28,105.28c0,58.05-47.23,105.28-105.28,105.28Zm0-145.61c-22.24,0-40.33,18.09-40.33,40.33s18.09,40.33,40.33,40.33,40.33-18.09,40.33-40.33c0-22.23-18.09-40.33-40.33-40.33Zm0,68.89c-15.75,0-28.56-12.81-28.56-28.56s12.81-28.56,28.56-28.56,28.56,12.81,28.56,28.56-12.81,28.56-28.56,28.56Zm88.9-51.94l-39.23,14.12-3.99-11.07,39.23-14.12,3.99,11.07Zm-111.13-21.87l-20.27-41.25s17-15.72,51-10.59l-6.54,48.08s-13.24-3.77-24.19,3.77Zm60.59-42.42l-26.21,39.5,6.62-47.05s16.38,2.98,19.59,7.55Zm-68.63,123.4l-29.38,38.62c-27.67-20.41-28.58-43.55-28.58-43.55l43.5-14.84c2.41,13.08,14.45,19.78,14.45,19.77Zm-20.78,44.56l28.59-37.95-9.4,46.47c-5.5.96-19.19-8.52-19.19-8.52Z"/>
  </g>
</svg>