<?xml version="1.0" encoding="utf-8"?>
<!-- Generator: Adobe Illustrator 27.2.0, SVG Export Plug-In . SVG Version: 6.00 Build 0)  -->
<svg version="1.1" id="Layer_1" xmlns="http://www.w3.org/2000/svg" xmlns:xlink="http://www.w3.org/1999/xlink" x="0px" y="0px"
	 viewBox="0 0 800 800" style="enable-background:new 0 0 800 800;" xml:space="preserve">
<style type="text/css">
	.st0{fill-rule:evenodd;clip-rule:evenodd;fill:#0AAFE5;}
	.st1{fill-rule:evenodd;clip-rule:evenodd;fill:#FDE449;}
</style>
<g>
	<path class="st0" d="M170.3,612.1L170.3,612.1c-26-26.3-25.8-68.7,0.5-94.8l334.3-331c26.3-26,68.7-25.8,94.8,0.5l0,0
		c26,26.3,25.8,68.7-0.5,94.8l-334.3,331C238.8,638.6,196.4,638.4,170.3,612.1z"/>
	<path class="st0" d="M175.2,187.5L175.2,187.5c26.3-26,68.7-25.8,94.8,0.5l331,334.3c26,26.3,25.8,68.7-0.5,94.8l0,0
		c-26.3,26-68.7,25.8-94.8-0.5l-331-334.3C148.7,255.9,148.9,213.5,175.2,187.5z"/>
</g>
<g>
	<path class="st1" d="M176.2,582.2L176.2,582.2c-26-26.3-25.8-68.7,0.5-94.8l334.3-331c26.3-26,68.7-25.8,94.8,0.5l0,0
		c26,26.3,25.8,68.7-0.5,94.8l-334.3,331C244.6,608.7,202.2,608.5,176.2,582.2z"/>
	<path class="st1" d="M181.1,157.6L181.1,157.6c26.3-26,68.7-25.8,94.8,0.5l331,334.3c26,26.3,25.8,68.7-0.5,94.8l0,0
		c-26.3,26-68.7,25.8-94.8-0.5l-331-334.3C154.6,226.1,154.8,183.6,181.1,157.6z"/>
</g>
</svg>
